#!OML:ASF G:\acrobat\cartwheel_test\acrobat_wednesday\Session 1\acrobatwednesday.ASF
:FULLY-SPECIFIED
:DEGREES
144
root 18.3562 14.5378 -1.42215 301.962 73.5627 -234.939
lowerback 7.25869 2.72358 3.79864
upperback -7.40354 4.14809 1.48485
thorax -11.9292 1.64274 -1.20981
lowerneck -29.3224 -0.0301944 -3.75311
upperneck -5.2256 1.72456 6.95207
head 2.68006 1.72598 3.02332
rclavicle -5.60573e-014 -5.725e-014
rhumerus 71.9752 -53.7331 -50.0062
rradius 39.6895
rwrist 43.6602
rhand -57.3967 -268.974
rfingers 7.12502
rthumb -29.6702 118.672
lclavicle -5.60573e-014 -5.725e-014
lhumerus 54.0354 57.3316 26.5874
lradius 50.9013
lwrist 48.8114
lhand -54.0459 325.778
lfingers 7.12502
lthumb -26.4672 -6.05072
rfemur 26.4851 -357.49 -2.17075
rtibia 33.6838
rfoot -21.5625 -22.0812
rtoes 7.42913
lfemur -16.508 23.5714 10.889
ltibia 83.4423
lfoot 189.656 206.736
ltoes 64.2864
145
root 18.3936 14.5097 -1.81445 297.52 77.96 -238.348
lowerback 7.13871 2.77098 3.21434
upperback -7.41473 4.07551 0.792731
thorax -11.8527 1.62799 -1.61617
lowerneck -29.1726 0.0192066 -4.07153
upperneck -4.90576 1.82994 7.1968
head 2.75581 1.77631 3.16333
rclavicle 2.0276e-014 -2.54444e-014
rhumerus 72.478 -53.443 -49.5949
rradius 39.2098
rwrist 46.2928
rhand -57.0978 -269.549
rfingers 7.12502
rthumb -29.3848 118.147
lclavicle 2.0276e-014 -2.54444e-014
lhumerus 59.6552 56.0587 31.2804
lradius 49.7784
lwrist 47.0047
lhand -53.5393 327.486
lfingers 7.12502
lthumb -25.9823 -4.26983
rfemur 27.4385 -359.056 -1.25126
rtibia 35.5629
rfoot -17.3929 -27.7146
rtoes 9.21438
lfemur -18.4551 22.6898 11.2894
ltibia 80.1097
lfoot 193.875 206.557
ltoes 64.2208
146
root 18.4299 14.4825 -2.22095 289.179 82.1218 -245.445
lowerback 7.07969 2.81171 2.83252
upperback -7.42207 4.02649 0.149529
thorax -11.8013 1.60759 -2.0881
lowerneck -29.0496 -0.02912 -4.68721
upperneck -4.00782 1.83015 7.94413
head 3.02382 1.8001 3.5104
rclavicle 3.93594e-014 1.03368e-014
rhumerus 72.5159 -53.0506 -48.6821
rradius 38.6726
rwrist 48.6218
rhand -57.2423 -89.8507
rfingers 7.12502
rthumb -29.5228 117.523
lclavicle 3.93594e-014 1.03368e-014
lhumerus 65.1766 54.1766 35.9326
lradius 48.2621
lwrist 45.8176
lhand -52.4237 330.276
lfingers 7.12502
lthumb -24.9136 -1.32789
rfemur 28.0379 -360.295 -0.52662
rtibia 37.9423
rfoot -14.4435 -30.8035
rtoes 8.67112
lfemur -20.3273 22.1853 11.7803
ltibia 76.3674
lfoot 193.774 203.511
ltoes 59.3499
147
root 18.4696 14.4579 -2.63714 265.593 85.5367 -267.515
lowerback 7.22339 2.62065 2.78007
upperback -7.28689 4.0046 -0.3894
thorax -11.7054 1.73732 -2.67537
lowerneck -29.2957 -0.195993 -5.30249
upperneck -2.65733 1.62987 8.83401
head 3.49713 1.73989 3.89845
rclavicle 9.44227e-014 3.57812e-014
rhumerus 72.4583 -52.6958 -47.453
rradius 37.7853
rwrist 50.7516
rhand -57.2393 -89.718
rfingers 7.12502
rthumb -29.5199 117.391
lclavicle 9.44227e-014 3.57812e-014
lhumerus 70.1706 51.9143 39.9255
lradius 46.2279
lwrist 46.0543
lhand -50.7012 334.555
lfingers 7.12502
lthumb -23.262 3.16967
rfemur 28.495 -361.233 0.427263
rtibia 40.6285
rfoot -11.6344 -32.8844
rtoes 8.17787
lfemur -21.8899 21.0252 12.9743
ltibia 71.8132
lfoot 191.97 201.83
ltoes 57.2756
148
root 18.5162 14.4303 -3.06495 203.158 86.6303 -328.303
lowerback 7.44755 2.60995 2.7022
upperback -6.98669 3.89916 -0.933652
thorax -11.4708 1.66299 -3.20135
lowerneck -29.7017 -0.352966 -5.74304
upperneck -1.51554 1.43073 9.29883
head 3.9264 1.66274 4.12255
rclavicle -2.24627e-014 7.95139e-015
rhumerus 71.8848 -52.3752 -45.5353
rradius 36.852
rwrist 52.4333
rhand -56.8984 -89.4937
rfingers 7.12502
rthumb -29.1945 117.224
lclavicle -2.24627e-014 7.95139e-015
lhumerus 72.8262 49.2844 41.02
lradius 43.3663
lwrist 46.9511
lhand -50.0677 335.107
lfingers 7.12502
lthumb -22.6541 3.79693
rfemur 28.762 -361.928 1.19402
rtibia 43.2541
rfoot -10.4818 -34.1319
rtoes 10.3453
lfemur -23.6801 20.2387 13.8693
ltibia 66.9793
lfoot 191.741 200.891
ltoes 58.7466
149
root 18.5691 14.39 -3.50725 156.695 84.0333 -373.163
lowerback 7.71492 2.6063 2.11045
upperback -6.70186 3.731 -1.53086
thorax -11.3153 1.59546 -3.49045
lowerneck -30.0637 -0.375286 -5.91657
upperneck -0.550418 1.36212 9.41538
head 4.28492 1.62929 4.2009
rclavicle -1.01678e-013 -1.27222e-014
rhumerus 70.3934 -51.8832 -42.4129
rradius 35.9165
rwrist 53.3981
rhand -56.4903 -88.9055
rfingers 7.12502
rthumb -28.8047 116.703
lclavicle -1.01678e-013 -1.27222e-014
lhumerus 70.8274 46.3755 36.8072
lradius 40.16
lwrist 49.9521
lhand -54.4055 324.951
lfingers 7.12502
lthumb -26.8114 -6.92964
rfemur 28.655 -362.18 1.24026
rtibia 45.7828
rfoot -11.8451 -35.0626
rtoes 9.98838
lfemur -25.2959 18.8713 14.3169
ltibia 60.9532
lfoot 190.862 200.094
ltoes 57.5374
150
root 18.6293 14.3428 -3.95784 140.931 80.244 -387.218
lowerback 8.21816 2.55484 1.49811
upperback -6.42491 3.50927 -2.02582
thorax -11.3263 1.50332 -3.66364
lowerneck -30.2867 -0.301323 -6.07316
upperneck 0.317403 1.43413 9.42237
head 4.58415 1.6565 4.25275
rclavicle -1.69861e-013 -4.86029e-014
rhumerus 68.5926 -51.0417 -38.5292
rradius 34.735
rwrist 53.9075
rhand -56.113 -88.5093
rfingers 7.12502
rthumb -28.4442 116.367
lclavicle -1.69861e-013 -4.86029e-014
lhumerus 74.8857 43.3854 40.2226
lradius 34.2262
lwrist 49.7144
lhand -60.7932 300.833
lfingers 7.12502
lthumb -32.9066 -32.1476
rfemur 28.341 -362.069 1.09872
rtibia 48.2243
rfoot -13.2121 -35.542
rtoes 9.63437
lfemur -26.6318 17.1944 14.8523
ltibia 54.5244
lfoot 189.294 198.697
ltoes 56.6887
151
root 18.6906 14.297 -4.40834 133.826 76.5096 -392.438
lowerback 8.67897 2.38793 1.3174
upperback -5.80324 3.19697 -2.40575
thorax -10.9132 1.35143 -3.91477
lowerneck -31.0682 -0.115532 -6.11878
upperneck 1.22182 1.69921 9.08129
head 4.95019 1.7711 4.20736
rclavicle -1.50381e-013 -2.66371e-014
rhumerus 69.0003 -50.1633 -36.7956
rradius 33.2177
rwrist 55.0217
rhand -56.0502 -87.8208
rfingers 7.12502
rthumb -28.3842 115.689
lclavicle -1.50381e-013 -2.66371e-014
lhumerus 84.7953 39.9307 58.2012
lradius 33.3942
lwrist 39.4935
lhand -59.3434 297.005
lfingers 7.12502
lthumb -31.5266 -35.6948
rfemur 27.9584 -361.138 1.88226
rtibia 50.2671
rfoot -17.3548 -34.4692
rtoes 9.77895
lfemur -27.6777 15.6345 15.8672
ltibia 46.7376
lfoot 185.339 196.775
ltoes 56.7332
152
root 18.7358 14.2613 -4.84363 128.543 73.0404 -395.889
lowerback 9.77703 2.22119 1.52949
upperback -5.56625 2.90706 -3.14542
thorax -11.2852 1.1407 -4.84479
lowerneck -31.9704 0.241227 -5.21666
upperneck 2.6772 1.85728 8.07233
head 5.51053 1.77304 3.79407
rclavicle 1.11916e-013 1.14898e-013
rhumerus 66.1582 -49.1445 -31.768
rradius 32.0021
rwrist 53.7271
rhand -56.2713 -85.6563
rfingers 7.12502
rthumb -28.5954 113.489
lclavicle 1.11916e-013 1.14898e-013
lhumerus 73.1473 39.2604 48.3771
lradius 39.3615
lwrist 45.9346
lhand -59.9486 292.574
lfingers 7.12502
lthumb -32.1029 -40.2407
rfemur 27.4143 -359.682 2.96131
rtibia 51.8749
rfoot -21.3551 -32.7168
rtoes 9.31453
lfemur -27.9388 13.3493 17.8219
ltibia 37.6706
lfoot 181.349 197.781
ltoes 55.0956
153
root 18.7528 14.252 -5.251 123.783 69.8951 -398.952
lowerback 10.8525 2.05961 1.41204
upperback -5.33315 2.57009 -3.89131
thorax -11.6783 0.931277 -5.59093
lowerneck -31.7156 0.113821 -5.86268
upperneck 2.69877 1.76321 9.5115
head 5.51582 1.8476 4.36114
rclavicle -2.82274e-014 -3.73715e-014
rhumerus 63.2523 -48.0014 -26.935
rradius 30.8508
rwrist 52.0987
rhand -56.6848 -81.299
rfingers 7.12502
rthumb -28.9905 109.064
lclavicle -2.82274e-014 -3.73715e-014
lhumerus 68.5386 38.1221 43.1223
lradius 39.8032
lwrist 48.778
lhand -60.232 286.646
lfingers 7.12502
lthumb -32.3727 -46.224
rfemur 26.7049 -357.449 4.69245
rtibia 53.0009
rfoot -23.9453 -31.1258
rtoes 11.1248
lfemur -27.6266 10.4047 20.8176
ltibia 27.9953
lfoot 175.896 199.468
ltoes 59.5431
